<svg xmlns="http://www.w3.org/2000/svg" viewBox="0 0 860 480" font-family="'Segoe UI', system-ui, sans-serif">
  <!-- Background -->
  <rect width="860" height="480" fill="#F1F5F9"/>

  <!-- Header -->
  <text x="40" y="52" font-size="10" font-weight="700" fill="#4F46E5" letter-spacing="2">JOB MARKET MONITOR</text>
  <text x="40" y="84" font-size="28" font-weight="800" fill="#0F172A">Remote </text>
  <text x="138" y="84" font-size="28" font-weight="800" fill="#4F46E5">Web Developer</text>
  <text x="390" y="84" font-size="28" font-weight="800" fill="#0F172A"> Jobs</text>
  <text x="40" y="108" font-size="12" fill="#64748B">Date: <tspan font-weight="700" fill="#4F46E5">Friday, July 17, 2026</tspan>    Last 7d: <tspan font-weight="700" fill="#4F46E5">3 listings</tspan></text>

  <!-- Divider -->
  <line x1="40" y1="124" x2="820" y2="124" stroke="#E2E8F0" stroke-width="1"/>

  <!-- Card 1 -->
  <rect x="40" y="138" width="780" height="96" rx="12" fill="white" stroke="#E2E8F0" stroke-width="1"/>
  <text x="64" y="166" font-size="14" font-weight="700" fill="#0F172A">Junior Software Engineer</text>
  <text x="64" y="185" font-size="12" fill="#64748B">Lockwood Publishing Ltd</text>
  <!-- Tags -->
  <rect x="64" y="196" width="44" height="18" rx="4" fill="#F8FAFC" stroke="#E2E8F0" stroke-width="1"/>
  <text x="86" y="209" font-size="9" fill="#475569" text-anchor="middle">mobile</text>
  <rect x="114" y="196" width="50" height="18" rx="4" fill="#F8FAFC" stroke="#E2E8F0" stroke-width="1"/>
  <text x="139" y="209" font-size="9" fill="#475569" text-anchor="middle">engineer</text>
  <rect x="170" y="196" width="32" height="18" rx="4" fill="#F8FAFC" stroke="#E2E8F0" stroke-width="1"/>
  <text x="186" y="209" font-size="9" fill="#475569" text-anchor="middle">dev</text>
  <rect x="208" y="196" width="38" height="18" rx="4" fill="#F8FAFC" stroke="#E2E8F0" stroke-width="1"/>
  <text x="227" y="209" font-size="9" fill="#475569" text-anchor="middle">junior</text>
  <!-- Footer -->
  <text x="64" y="226" font-size="10" fill="#94A3B8">Jul 16, 2026, 4:01 PM</text>
  <rect x="670" y="215" width="90" height="26" rx="7" fill="#4F46E5"/>
  <text x="715" y="232" font-size="11" font-weight="700" fill="white" text-anchor="middle">View Job →</text>

  <!-- Card 2 -->
  <rect x="40" y="246" width="780" height="96" rx="12" fill="white" stroke="#E2E8F0" stroke-width="1"/>
  <text x="64" y="274" font-size="14" font-weight="700" fill="#0F172A">Engineers</text>
  <text x="64" y="293" font-size="12" fill="#64748B">Lockwood Publishing Ltd</text>
  <!-- Tags -->
  <rect x="64" y="304" width="44" height="18" rx="4" fill="#F8FAFC" stroke="#E2E8F0" stroke-width="1"/>
  <text x="86" y="317" font-size="9" fill="#475569" text-anchor="middle">mobile</text>
  <rect x="114" y="304" width="50" height="18" rx="4" fill="#F8FAFC" stroke="#E2E8F0" stroke-width="1"/>
  <text x="139" y="317" font-size="9" fill="#475569" text-anchor="middle">engineer</text>
  <!-- Footer -->
  <text x="64" y="334" font-size="10" fill="#94A3B8">Jul 16, 2026, 4:00 PM</text>
  <rect x="670" y="323" width="90" height="26" rx="7" fill="#4F46E5"/>
  <text x="715" y="340" font-size="11" font-weight="700" fill="white" text-anchor="middle">View Job →</text>

  <!-- Card 3 -->
  <rect x="40" y="354" width="780" height="96" rx="12" fill="white" stroke="#E2E8F0" stroke-width="1"/>
  <text x="64" y="382" font-size="14" font-weight="700" fill="#0F172A">QA Engineer</text>
  <text x="64" y="401" font-size="12" fill="#64748B">InEight</text>
  <!-- Tags -->
  <rect x="64" y="412" width="56" height="18" rx="4" fill="#F8FAFC" stroke="#E2E8F0" stroke-width="1"/>
  <text x="92" y="425" font-size="9" fill="#475569" text-anchor="middle">teaching</text>
  <rect x="126" y="412" width="84" height="18" rx="4" fill="#F8FAFC" stroke="#E2E8F0" stroke-width="1"/>
  <text x="168" y="425" font-size="9" fill="#475569" text-anchor="middle">customer support</text>
  <rect x="216" y="412" width="52" height="18" rx="4" fill="#F8FAFC" stroke="#E2E8F0" stroke-width="1"/>
  <text x="242" y="425" font-size="9" fill="#475569" text-anchor="middle">microsoft</text>
  <!-- Footer -->
  <text x="64" y="442" font-size="10" fill="#94A3B8">Jul 14, 2026, 12:57 PM</text>
  <rect x="670" y="431" width="90" height="26" rx="7" fill="#4F46E5"/>
  <text x="715" y="448" font-size="11" font-weight="700" fill="white" text-anchor="middle">View Job →</text>

  <!-- Footer text -->
  <text x="430" y="472" font-size="10" fill="#CBD5E1" text-anchor="middle">Generated by job-market-monitor • Source: RemoteOK API</text>
</svg>
