<svg xmlns="http://www.w3.org/2000/svg" viewBox="0 0 860 500" font-family="'Segoe UI', system-ui, sans-serif">

  <!-- Background -->
  <rect width="860" height="500" fill="#F1F5F9"/>

  <!-- ── HEADER ── -->
  <text x="40" y="50" font-size="10" font-weight="700" fill="#4F46E5" letter-spacing="2.5">JOB MARKET MONITOR</text>

  <!-- Title in one <text> so tspans flow correctly -->
  <text x="40" y="88" font-size="30" font-weight="800" fill="#0F172A">
    <tspan>Remote </tspan><tspan fill="#4F46E5">Web Developer</tspan><tspan> Jobs</tspan>
  </text>

  <text x="40" y="114" font-size="12.5" fill="#64748B">
    Date: <tspan font-weight="700" fill="#4F46E5">Friday, July 17, 2026</tspan>
    <tspan dx="20">Last 7d:</tspan>
    <tspan font-weight="700" fill="#4F46E5"> 3 listings</tspan>
  </text>

  <!-- Divider -->
  <line x1="40" y1="132" x2="820" y2="132" stroke="#E2E8F0" stroke-width="1"/>

  <!-- ── CARD 1 ── -->
  <rect x="40" y="146" width="780" height="98" rx="12" fill="white" stroke="#E2E8F0" stroke-width="1"/>
  <text x="64" y="174" font-size="14.5" font-weight="700" fill="#0F172A">Junior Software Engineer</text>
  <text x="64" y="194" font-size="12" font-weight="500" fill="#64748B">Lockwood Publishing Ltd</text>
  <!-- tags -->
  <rect x="64"  y="204" width="50"  height="17" rx="4" fill="#F8FAFC" stroke="#E2E8F0" stroke-width="1"/>
  <text x="89"  y="216" font-size="9.5" fill="#475569" text-anchor="middle">mobile</text>
  <rect x="120" y="204" width="54"  height="17" rx="4" fill="#F8FAFC" stroke="#E2E8F0" stroke-width="1"/>
  <text x="147" y="216" font-size="9.5" fill="#475569" text-anchor="middle">engineer</text>
  <rect x="180" y="204" width="34"  height="17" rx="4" fill="#F8FAFC" stroke="#E2E8F0" stroke-width="1"/>
  <text x="197" y="216" font-size="9.5" fill="#475569" text-anchor="middle">dev</text>
  <rect x="220" y="204" width="40"  height="17" rx="4" fill="#F8FAFC" stroke="#E2E8F0" stroke-width="1"/>
  <text x="240" y="216" font-size="9.5" fill="#475569" text-anchor="middle">junior</text>
  <!-- footer row -->
  <line x1="64" y1="228" x2="796" y2="228" stroke="#F1F5F9" stroke-width="1"/>
  <text x="64" y="238" font-size="10" fill="#94A3B8">Jul 16, 2026, 4:01 PM</text>
  <rect x="680" y="224" width="96" height="28" rx="7" fill="#4F46E5"/>
  <text x="728" y="242" font-size="11.5" font-weight="700" fill="white" text-anchor="middle">View Job →</text>

  <!-- ── CARD 2 ── -->
  <rect x="40" y="256" width="780" height="98" rx="12" fill="white" stroke="#E2E8F0" stroke-width="1"/>
  <text x="64" y="284" font-size="14.5" font-weight="700" fill="#0F172A">Engineers</text>
  <text x="64" y="304" font-size="12" font-weight="500" fill="#64748B">Lockwood Publishing Ltd</text>
  <rect x="64"  y="314" width="50"  height="17" rx="4" fill="#F8FAFC" stroke="#E2E8F0" stroke-width="1"/>
  <text x="89"  y="326" font-size="9.5" fill="#475569" text-anchor="middle">mobile</text>
  <rect x="120" y="314" width="54"  height="17" rx="4" fill="#F8FAFC" stroke="#E2E8F0" stroke-width="1"/>
  <text x="147" y="326" font-size="9.5" fill="#475569" text-anchor="middle">engineer</text>
  <line x1="64" y1="338" x2="796" y2="338" stroke="#F1F5F9" stroke-width="1"/>
  <text x="64" y="348" font-size="10" fill="#94A3B8">Jul 16, 2026, 4:00 PM</text>
  <rect x="680" y="334" width="96" height="28" rx="7" fill="#4F46E5"/>
  <text x="728" y="352" font-size="11.5" font-weight="700" fill="white" text-anchor="middle">View Job →</text>

  <!-- ── CARD 3 ── -->
  <rect x="40" y="366" width="780" height="98" rx="12" fill="white" stroke="#E2E8F0" stroke-width="1"/>
  <text x="64" y="394" font-size="14.5" font-weight="700" fill="#0F172A">QA Engineer</text>
  <text x="64" y="414" font-size="12" font-weight="500" fill="#64748B">InEight</text>
  <rect x="64"  y="424" width="58"  height="17" rx="4" fill="#F8FAFC" stroke="#E2E8F0" stroke-width="1"/>
  <text x="93"  y="436" font-size="9.5" fill="#475569" text-anchor="middle">teaching</text>
  <rect x="128" y="424" width="88"  height="17" rx="4" fill="#F8FAFC" stroke="#E2E8F0" stroke-width="1"/>
  <text x="172" y="436" font-size="9.5" fill="#475569" text-anchor="middle">customer support</text>
  <rect x="222" y="424" width="58"  height="17" rx="4" fill="#F8FAFC" stroke="#E2E8F0" stroke-width="1"/>
  <text x="251" y="436" font-size="9.5" fill="#475569" text-anchor="middle">microsoft</text>
  <line x1="64" y1="448" x2="796" y2="448" stroke="#F1F5F9" stroke-width="1"/>
  <text x="64" y="458" font-size="10" fill="#94A3B8">Jul 14, 2026, 12:57 PM</text>
  <rect x="680" y="444" width="96" height="28" rx="7" fill="#4F46E5"/>
  <text x="728" y="462" font-size="11.5" font-weight="700" fill="white" text-anchor="middle">View Job →</text>

  <!-- ── FOOTER ── -->
  <text x="430" y="492" font-size="10" fill="#CBD5E1" text-anchor="middle">Generated by job-market-monitor • Source: RemoteOK API</text>

</svg>
