<svg xmlns="http://www.w3.org/2000/svg" viewBox="0 0 620 520" font-family="'Segoe UI', system-ui, sans-serif">

  <!-- Background -->
  <rect width="620" height="520" rx="8" fill="#F1F5F9"/>

  <!-- ── HEADER ── -->
  <text x="32" y="42" font-size="9" font-weight="700" fill="#4F46E5" letter-spacing="2.5">JOB MARKET MONITOR</text>
  <text x="32" y="74" font-size="26" font-weight="800" fill="#0F172A">
    <tspan>Remote </tspan><tspan fill="#4F46E5">Web Developer</tspan><tspan> Jobs</tspan>
  </text>
  <text x="32" y="96" font-size="11.5" fill="#64748B">
    Date: <tspan font-weight="700" fill="#4F46E5">Friday, July 17, 2026</tspan>
    <tspan dx="16">Last 7d:</tspan>
    <tspan font-weight="700" fill="#4F46E5"> 3 listings</tspan>
  </text>

  <!-- Divider -->
  <line x1="32" y1="112" x2="588" y2="112" stroke="#E2E8F0" stroke-width="1"/>

  <!-- ── CARD 1 ── -->
  <rect x="32" y="124" width="556" height="112" rx="10" fill="white" stroke="#E2E8F0" stroke-width="1"/>
  <text x="52" y="150" font-size="14" font-weight="700" fill="#0F172A">Junior Software Engineer</text>
  <text x="52" y="168" font-size="12" font-weight="500" fill="#64748B">Lockwood Publishing Ltd</text>
  <rect x="52"  y="178" width="46" height="16" rx="4" fill="#F8FAFC" stroke="#E2E8F0" stroke-width="1"/>
  <text x="75"  y="189" font-size="9" fill="#475569" text-anchor="middle">mobile</text>
  <rect x="103" y="178" width="52" height="16" rx="4" fill="#F8FAFC" stroke="#E2E8F0" stroke-width="1"/>
  <text x="129" y="189" font-size="9" fill="#475569" text-anchor="middle">engineer</text>
  <rect x="160" y="178" width="30" height="16" rx="4" fill="#F8FAFC" stroke="#E2E8F0" stroke-width="1"/>
  <text x="175" y="189" font-size="9" fill="#475569" text-anchor="middle">dev</text>
  <rect x="195" y="178" width="38" height="16" rx="4" fill="#F8FAFC" stroke="#E2E8F0" stroke-width="1"/>
  <text x="214" y="189" font-size="9" fill="#475569" text-anchor="middle">junior</text>
  <line x1="52" y1="202" x2="568" y2="202" stroke="#F1F5F9" stroke-width="1"/>
  <text x="52" y="222" font-size="10" fill="#94A3B8">Jul 16, 2026, 4:01 PM</text>
  <rect x="478" y="208" width="90" height="24" rx="6" fill="#4F46E5"/>
  <text x="523" y="224" font-size="11" font-weight="700" fill="white" text-anchor="middle">View Job →</text>

  <!-- ── CARD 2 ── -->
  <rect x="32" y="248" width="556" height="112" rx="10" fill="white" stroke="#E2E8F0" stroke-width="1"/>
  <text x="52" y="274" font-size="14" font-weight="700" fill="#0F172A">Engineers</text>
  <text x="52" y="292" font-size="12" font-weight="500" fill="#64748B">Lockwood Publishing Ltd</text>
  <rect x="52"  y="302" width="46" height="16" rx="4" fill="#F8FAFC" stroke="#E2E8F0" stroke-width="1"/>
  <text x="75"  y="313" font-size="9" fill="#475569" text-anchor="middle">mobile</text>
  <rect x="103" y="302" width="52" height="16" rx="4" fill="#F8FAFC" stroke="#E2E8F0" stroke-width="1"/>
  <text x="129" y="313" font-size="9" fill="#475569" text-anchor="middle">engineer</text>
  <line x1="52" y1="326" x2="568" y2="326" stroke="#F1F5F9" stroke-width="1"/>
  <text x="52" y="346" font-size="10" fill="#94A3B8">Jul 16, 2026, 4:00 PM</text>
  <rect x="478" y="332" width="90" height="24" rx="6" fill="#4F46E5"/>
  <text x="523" y="348" font-size="11" font-weight="700" fill="white" text-anchor="middle">View Job →</text>

  <!-- ── CARD 3 ── -->
  <rect x="32" y="372" width="556" height="112" rx="10" fill="white" stroke="#E2E8F0" stroke-width="1"/>
  <text x="52" y="398" font-size="14" font-weight="700" fill="#0F172A">QA Engineer</text>
  <text x="52" y="416" font-size="12" font-weight="500" fill="#64748B">InEight</text>
  <rect x="52"  y="426" width="52" height="16" rx="4" fill="#F8FAFC" stroke="#E2E8F0" stroke-width="1"/>
  <text x="78"  y="437" font-size="9" fill="#475569" text-anchor="middle">teaching</text>
  <rect x="109" y="426" width="86" height="16" rx="4" fill="#F8FAFC" stroke="#E2E8F0" stroke-width="1"/>
  <text x="152" y="437" font-size="9" fill="#475569" text-anchor="middle">customer support</text>
  <rect x="200" y="426" width="54" height="16" rx="4" fill="#F8FAFC" stroke="#E2E8F0" stroke-width="1"/>
  <text x="227" y="437" font-size="9" fill="#475569" text-anchor="middle">microsoft</text>
  <line x1="52" y1="450" x2="568" y2="450" stroke="#F1F5F9" stroke-width="1"/>
  <text x="52" y="470" font-size="10" fill="#94A3B8">Jul 14, 2026, 12:57 PM</text>
  <rect x="478" y="456" width="90" height="24" rx="6" fill="#4F46E5"/>
  <text x="523" y="472" font-size="11" font-weight="700" fill="white" text-anchor="middle">View Job →</text>

  <!-- ── FOOTER ── -->
  <text x="310" y="508" font-size="9" fill="#CBD5E1" text-anchor="middle">Generated by job-market-monitor • Source: RemoteOK API</text>

</svg>
